<svg width="137" height="138" fill="none" xmlns="http://www.w3.org/2000/svg"><path d="M83.735 95.526c-14.588 8.422-33.241 3.424-41.663-11.164-8.423-14.588-3.425-33.241 11.163-41.664 14.588-8.422 33.242-3.424 41.664 11.164 8.422 14.588 3.424 33.241-11.164 41.664z" stroke="#354BB4"/><path d="M89.658 106.476l-.406-.892-1.924.876-2.402-5.275-1.108.504 2.401 5.275-1.924.876.406.892 4.957-2.256zm-10.765-5.61l-1.19.258.78 3.598-.027.006c-.54-.571-1.389-.788-2.264-.598-1.56.339-2.755 1.83-2.24 4.21.437 2.012 1.935 3.105 3.536 2.758 1.08-.234 1.757-.882 2.074-1.797l.027-.005.301 1.123 1.081-.234a48.504 48.504 0 01-.523-2.15l-1.555-7.169zm.228 6.798c.035.164.033.351.025.51-.037.954-.676 1.708-1.497 1.886-1.272.276-2.216-.708-2.504-2.035-.33-1.519.184-2.719 1.456-2.995a1.9 1.9 0 012.112 1.017c.06.145.123.303.162.481l.246 1.136zm-12.434-2.581c.073.464.086 1.039.072 1.627l-.063 2.533c-.033 1.357.436 2.783 2.507 2.835.854.021 1.671-.197 2.24-.547l-.26-.819a3.373 3.373 0 01-1.776.46c-1.385-.034-1.514-1.045-1.5-1.605l.003-.14c2.617.079 4.095-.781 4.135-2.419.024-.979-.652-1.962-2.023-1.996-.966-.024-1.706.434-2.097.956l-.041-.001-.077-.856-1.12-.028zm1.245 2.314c.003-.126.035-.265.08-.39.21-.569.784-1.115 1.665-1.094.63.016 1.153.407 1.133 1.205-.032 1.315-1.564 1.516-2.907 1.454l.03-1.175zm-7.209 3.961l1.825-6.526-1.173-.328-.826 2.953-3.101-.867.826-2.953-1.173-.328-1.825 6.525 1.173.328.735-2.629 3.101.868-.735 2.629 1.173.328zm-11.503-10.42c.38.037.872.103 1.483.445 1.173.656 1.581 1.991.816 3.36-.69 1.234-1.984 1.826-3.34 1.067-.587-.328-.915-.688-1.09-.978l-.709.694c.212.311.685.784 1.32 1.14 1.931 1.079 3.915.457 4.934-1.364 1.01-1.808.527-3.667-1.257-4.665-.794-.444-1.527-.597-1.89-.608l-.268.909zm-7.292 1.903l1.858-2c1.03-1.108 1.728-1.758 2.504-1.668.219.012.48.121.683.252l.565-.793c-.461-.429-.843-.573-1.27-.607-1.037-.18-2.037.63-3.333 2.025l-1.2 1.292-1.703-1.581 3.953-4.257-.892-.83-4.611 4.966 3.446 3.201zm-9.934-11.467c.265.53.637 1.223 1.083 1.902.484.737 1.055 1.35 1.632 1.642.53.27 1.135.325 1.72-.06.866-.568.822-1.629.42-2.42l.035-.023c.216.227.483.353.75.429.752.226 1.582-.118 2.293-.234.315-.056.602-.078.874-.072l-.723-1.1c-.194.01-.4.029-.622.074-.696.14-1.497.448-2.114.25-.344-.091-.654-.307-.938-.74l-.5-.76 2.375-1.561-.67-1.018-5.615 3.691zm3.208-.65l.577.877c.4.608.734 1.678.009 2.155-.784.515-1.529-.185-1.99-.887a6.865 6.865 0 01-.503-.892l1.907-1.254zm-5.693-3.538l6.382-2.278-1.741-4.878 2.011-.778-.32-.896-2.91.964.221.664-5.511 1.967.41 1.147 5.471-1.953 1.05 2.94-5.473 1.954.41 1.147zm-3.323-10.232l6.755-.533-.111-1.41c-1.244-.632-2.6-1.27-3.698-1.829a38.76 38.76 0 00-2.181-.95l-.004-.043a45.406 45.406 0 002.77-.134l2.861-.226-.092-1.172-6.755.533.113 1.437L29.5 74.46c.817.384 1.31.584 2.165.924l-.01.043a41.8 41.8 0 00-2.713.144l-2.848.225.092 1.158zm.453-16.571a18.87 18.87 0 00-.51 2.128c-.15.87-.152 1.707.07 2.314.201.56.606 1.014 1.296 1.133 1.02.176 1.713-.628 1.96-1.48l.042.007a1.6 1.6 0 00.255.825c.394.68 1.235.995 1.833 1.397.268.174.493.355.687.544l.224-1.296a4.158 4.158 0 00-.504-.372c-.603-.374-1.4-.696-1.714-1.262-.19-.302-.268-.67-.18-1.181l.155-.897 2.8.483.208-1.2-6.623-1.143zm2.786 1.717l-.178 1.035c-.124.717-.611 1.727-1.466 1.58-.925-.16-.99-1.18-.848-2.008.074-.428.15-.699.243-.995l2.25.388zm7.361-12.463c-.04.38-.11.872-.456 1.48-.664 1.169-2.003 1.567-3.365.792-1.23-.7-1.812-1.997-1.043-3.348.332-.584.694-.91.986-1.082l-.69-.714c-.311.209-.788.679-1.148 1.311-1.094 1.923-.486 3.912 1.327 4.943 1.801 1.025 3.663.555 4.674-1.222.45-.791.609-1.522.622-1.885l-.907-.275zm-2.109-6.978l4.983 4.592.825-.895-2.193-2.021.162-.175c.778-.844 1.575-.966 2.691-.566.554.225 1.107.411 1.447.476l.873-.947c-.61-.143-1.256-.414-1.709-.584-1.256-.434-2.237-.444-3.06.283l-.252-4.25-1.015 1.101.435 3.867-.2.216-2.161-1.993-.826.896zm9.128-8.713c-1.576 1.018-2.1 2.94-.87 4.846 1.163 1.798 3.08 2.16 4.62 1.164 1.376-.889 2.242-2.748.881-4.853-1.124-1.74-2.997-2.213-4.631-1.157zm.478.791c1.222-.79 2.495.121 3.118 1.085.828 1.282.688 2.69-.3 3.328-1.011.653-2.336.176-3.142-1.07-.699-1.082-.9-2.553.324-3.343zM54.64 38.7l1.154-.388-1.171-3.49.026-.01c.599.509 1.467.63 2.316.346 1.514-.508 2.538-2.121 1.763-4.43-.655-1.952-2.264-2.874-3.817-2.353-1.048.352-1.649 1.07-1.864 2.013l-.026.01-.423-1.084-1.049.351c.232.602.48 1.257.757 2.08l2.333 6.955zm-.974-6.732a2 2 0 01-.081-.505c-.068-.951.483-1.772 1.28-2.039 1.234-.414 2.28.46 2.713 1.748.494 1.473.115 2.723-1.119 3.137a1.9 1.9 0 01-2.21-.78 2.771 2.771 0 01-.214-.46l-.37-1.101zM63.761 26.4c-1.871.134-3.257 1.566-3.095 3.828.153 2.137 1.659 3.377 3.488 3.246 1.634-.117 3.288-1.33 3.11-3.83-.149-2.066-1.562-3.382-3.503-3.244zm.038.924c1.452-.104 2.128 1.307 2.21 2.452.11 1.523-.692 2.689-1.865 2.772-1.2.086-2.133-.97-2.238-2.45-.092-1.285.44-2.67 1.893-2.774zm14.183-.114l-2.108 6.44 1.158.38.953-2.915 3.06 1.002-.953 2.914 1.157.379 2.108-6.44-1.157-.38-.85 2.596-3.06-1.002.85-2.595-1.158-.378zm10.544 11.972c.176-.435.46-.934.775-1.431l1.358-2.14c.727-1.146 1.059-2.61-.69-3.72-.722-.458-1.535-.692-2.203-.684l-.199.835a3.376 3.376 0 011.76.52c1.17.742.76 1.676.46 2.149l-.075.118c-2.203-1.414-3.912-1.438-4.79-.054-.525.827-.45 2.018.708 2.753.815.517 1.685.505 2.29.258l.035.023-.375.774.946.6zm.123-2.624a1.29 1.29 0 01-.27.294c-.472.38-1.245.552-1.99.08-.532-.338-.779-.942-.351-1.616.705-1.111 2.12-.495 3.24.249l-.63.993zm8.169.224l-1.725 1.62c-1.132 1.064-.97 2.198-.088 3.137.44.47 1.092.856 1.633.982l.02.02-1.98 1.86.833.888 4.94-4.64-.834-.887-2.327 2.185a2.548 2.548 0 01-1.344-.735c-.738-.786-.53-1.423.093-2.008l1.623-1.524-.844-.898zm7.281 8.3l-5.945 3.251.584 1.069 2.69-1.471 1.545 2.825-2.69 1.47.585 1.07 5.945-3.252-.585-1.068-2.395 1.31-1.545-2.826 2.395-1.31-.584-1.068zm2.717 15.595c.125-.02.321-.048.563-.117 1.198-.342 2.908-1.441 2.301-3.568-.541-1.898-2.42-2.614-4.386-2.054-1.965.561-2.943 2.136-2.37 4.142.296 1.037.715 1.689 1.022 2.052l.791-.444c-.316-.39-.61-.86-.852-1.708-.338-1.184.03-2.396 1.624-2.88l1.307 4.577zm-.455-4.806c.849-.14 2.102.07 2.444 1.269.38 1.332-.699 1.99-1.456 2.191l-.988-3.46zm4.496 6.139l-.978.073.159 2.108-5.78.434.092 1.215 5.779-.435.159 2.108.977-.073-.408-5.43zm-5.701 13.32a3.51 3.51 0 01-.125-1.544c.186-1.331 1.281-2.197 2.834-1.98 1.401.194 2.422 1.184 2.208 2.723-.092.666-.309 1.102-.515 1.37l.904.409c.213-.31.482-.923.582-1.644.304-2.19-.997-3.813-3.063-4.1-2.052-.286-3.608.84-3.889 2.865-.126.901-.002 1.64.12 1.982l.944-.081zm2.807 10.173c.272-.526.614-1.235.9-1.995.311-.825.471-1.648.367-2.285-.093-.589-.405-1.11-1.061-1.357-.969-.365-1.801.295-2.203 1.086l-.039-.015a1.62 1.62 0 00-.096-.859c-.26-.74-1.026-1.209-1.538-1.716a4.387 4.387 0 01-.573-.664l-.464 1.232c.123.15.259.306.426.46.522.48 1.244.946 1.447 1.56.129.334.136.71-.046 1.195l-.321.852-2.66-1.001-.429 1.14 6.29 2.367zm-2.414-2.21l.369-.983c.257-.681.925-1.582 1.737-1.276.878.33.751 1.345.455 2.13a6.867 6.867 0 01-.426.933l-2.135-.804z" fill="#354BB4"/></svg>