<svg width="50" height="50" fill="none" xmlns="http://www.w3.org/2000/svg"><path d="M41.846 8.057V0H14.443L8.154 6.288v1.769h-6.69v5.859H2.93V9.52h5.224v22.901H9.62V7.324h5.86v-5.86h24.9v32.423H2.93V15.38H1.465v25.83h19.873v2.024l-1.185 2.37h-5.407a2.2 2.2 0 00-2.197 2.198V50H37.45v-2.197a2.2 2.2 0 00-2.197-2.197h-5.407l-1.185-2.37V41.21H41.21v-1.465H2.93v-4.394h44.14v4.394h-4.394v1.465h5.86V8.057h-6.69zM10.655 5.859l3.359-3.358v3.358h-3.36zm25.331 41.944v.732H14.014v-.732c0-.404.328-.733.732-.733h20.508c.404 0 .732.329.732.733zm-7.776-2.197h-6.42l1.013-2.025v-2.37h4.394v2.37l1.013 2.024zm13.636-11.72V9.522h5.224v24.366h-5.224z" fill="#354BB4"/><path d="M24.268 36.816h1.464v1.465h-1.464v-1.465zM18.65 9.682l-1.036-1.036-2.59 2.59-1.553-1.554-1.036 1.036 2.59 2.59 3.625-3.626zm-3.626 12.414l3.626-3.625-1.036-1.036-2.59 2.59-1.553-1.554-1.036 1.036 2.59 2.59zm5.793-3.965h14.765v1.465H20.817V18.13zm0 2.929h11.63v1.466h-11.63V21.06zm0 5.86h14.765v1.465H20.817V26.92zm0 2.93h11.63v1.464h-11.63V29.85zm0-17.578h11.63v1.464h-11.63v-1.464zm-5.793 18.613l3.626-3.625-1.036-1.036-2.59 2.59-1.553-1.554-1.036 1.036 2.59 2.59zm5.793-21.543h14.765v1.465H20.817V9.342zm1.657-4.947h7.324v1.464h-7.324V4.395zm21.666 6.591h1.465v1.465h-1.464v-1.465zm0 2.93h1.465v4.394h-1.464v-4.394z" fill="#354BB4"/></svg>